<?xml version="1.0" encoding="UTF-8"?>
<svg width="24" height="24" viewBox="0 0 24 24" fill="none" xmlns="http://www.w3.org/2000/svg">
  <path d="M22.675 0H1.325C.593 0 0 .593 0 1.325v21.35C0 23.407.593 24 1.325 24h11.495v-9.294H9.692v-3.622h3.128V8.413c0-3.1 1.893-4.788 4.655-4.788 1.325 0 2.463.099 2.795.143v3.24l-1.918.001c-1.504 0-1.795.716-1.795 1.764v2.313h3.587l-.467 3.622h-3.12V24h6.116C23.407 24 24 23.407 24 22.675V1.325C24 .593 23.407 0 22.675 0z" fill="#1877F2"/>
  <path d="M16.671 24v-9.294h3.12l.467-3.622h-3.587V8.771c0-1.048.291-1.764 1.795-1.764l1.918-.001V3.766c-.332-.044-1.47-.143-2.795-.143-2.762 0-4.655 1.688-4.655 4.788v2.676H9.692v3.622h3.128V24h3.851z" fill="#fff"/>
</svg>
