<?xml version="1.0" encoding="UTF-8"?>
<svg width="24" height="24" viewBox="0 0 24 24" fill="none" xmlns="http://www.w3.org/2000/svg">
  <path d="M21.35 11.1H12v2.8h5.4c-.25 1.3-1 2.4-2.13 3.14v2.6h3.43c2-1.85 3.16-4.6 3.16-7.74 0-.52-.05-1.03-.12-1.52z" fill="#4285F4"/>
  <path d="M12 22c2.7 0 4.97-.9 6.63-2.44l-3.43-2.6c-.95.64-2.17 1.02-3.2 1.02-2.46 0-4.54-1.66-5.28-3.9H2.96v2.46C4.62 19.8 8.01 22 12 22z" fill="#34A853"/>
  <path d="M6.72 13.08a5.99 5.99 0 010-3.94V6.68H2.96a9.98 9.98 0 000 10.64l3.76-2.24z" fill="#FBBC05"/>
  <path d="M12 5.5c1.47 0 2.8.51 3.84 1.52l2.87-2.87C16.96 2.5 14.7 1.5 12 1.5 8.01 1.5 4.62 3.7 2.96 6.68l3.76 2.46C7.46 7.16 9.54 5.5 12 5.5z" fill="#EA4335"/>
</svg>
